<svg width="29" height="16" viewBox="0 0 29 16" fill="none" xmlns="http://www.w3.org/2000/svg">
<path d="M27.9941 9.00293C28.5464 9.00293 28.9941 8.55521 28.9941 8.00293C28.9941 7.45064 28.5464 7.00293 27.9941 7.00293V9.00293ZM1.28703 7.29582C0.89651 7.68635 0.89651 8.31951 1.28703 8.71004L7.65099 15.074C8.04152 15.4645 8.67468 15.4645 9.06521 15.074C9.45573 14.6835 9.45573 14.0503 9.06521 13.6598L3.40835 8.00293L9.06521 2.34608C9.45573 1.95555 9.45573 1.32239 9.06521 0.931862C8.67468 0.541338 8.04152 0.541338 7.65099 0.931862L1.28703 7.29582ZM27.9941 7.00293L1.99414 7.00293V9.00293L27.9941 9.00293V7.00293Z" fill="#F4F4F4"/>
</svg>
